<svg version="1.2" xmlns="http://www.w3.org/2000/svg" viewBox="0 0 180 30" width="180" height="30"><style>.a{fill:#fff}</style><path class="a" d="m18.7 26h-3.1q0.2-0.8 0.2-2.4 0.1-1.6 0.1-3.7v-7.9q0-2.1-0.1-3.9 0-1.8-0.2-2.6 0 0 0.9 0 0.9-0.1 2.3-0.1 1.3 0 2.8 0 3.4 0 5.4 1.5 2.1 1.6 2.1 4.6 0 3.1-2 4.9-2 1.8-5.5 1.8-0.7 0-1.6 0-0.8 0-1.5-0.1v1.8q0 2.1 0.1 3.7 0 1.6 0.1 2.4zm2.7-10q2 0 3-0.5 1.1-0.6 1.5-1.6 0.5-0.9 0.5-2.1 0-1.1-0.5-2.1-0.4-0.9-1.5-1.5-1.1-0.6-2.9-0.6-1 0-1.7 0-0.6 0.1-1.3 0.1v8.2q0.7 0.1 1.4 0.1 0.7 0 1.5 0zm14.7 10.3q-2 0-3.3-1.1-1.3-1.2-1.3-2.8 0-1 0.5-2.1 0.5-1.1 1.7-1.9 1.3-0.8 3.4-1 0.5 0 1.3-0.1 0.8-0.1 1.5-0.1 0.7-0.1 1-0.1v-1.1q0-1.2-0.9-1.8-0.9-0.6-2.5-0.6-1.1 0-2.2 0.5-1.1 0.4-2.3 1.3 0-0.5 0-1.4 0.1-0.9 0.1-1.3 1.1-0.5 2.3-0.9 1.2-0.4 2.8-0.4 2.4 0 3.8 1.1 1.5 1.2 1.5 2.8v5.5q0 1.5 0.3 2.8 0.3 1.2 0.8 2.4h-2.6q-0.1-0.3-0.3-0.9-0.2-0.6-0.4-1.3-1.2 1.4-2.6 2-1.3 0.5-2.6 0.5zm0.4-2.3q1.1 0 2.1-0.4 1.1-0.5 2.3-2.1v-2.4q-0.3 0-1 0-0.7 0.1-1.5 0.2-0.7 0.1-1.1 0.1-1.8 0.2-2.6 1-0.7 0.7-0.7 1.7 0 0.9 0.7 1.4 0.6 0.5 1.8 0.5zm14.2 2h-2.6v-8.6q0-2.1-0.3-3.5-0.2-1.5-0.4-2.2h2.5q0.2 0.4 0.3 1.3 0.2 0.9 0.3 1.4 1-1.4 2.3-2.2 1.3-0.8 2.2-0.8 1.2 0 1.9 0.7 0.7 0.6 1 1.7 0.4 1.1 0.4 2.3l-2.3 0.5q0-1-0.4-1.9-0.4-0.8-1.2-0.8-0.6 0-1.3 0.6-0.8 0.6-1.4 1.5-0.7 0.9-1 1.9zm14.1 0h-3q0 0 0-1.1 0-1.2 0-2.9 0-1.8 0-3.8 0-2 0-3.9 0-1.9 0-3.2 0-1.3 0-1.6 0-3.1 1.2-4.7 1.3-1.6 3.6-1.6 1.7 0 3.1 1l-0.6 2.2q-1.2-0.8-2.5-0.8-1.1 0-1.7 0.8-0.6 0.8-0.6 2.6 0 0.4 0 1.5 0 1 0 2.3 0 1.3 0 2.6 0 1.2 0 2.2 0 1 0 1.4 0 2.1 0.1 4 0.1 1.9 0.4 3zm3.3-12h-9.1v-2h9.1zm7.5 12.3q-4.5 0-4.5-6.1 0-0.1 0-0.7 0-0.6 0-1.3 0-0.8 0-1.4 0-0.6 0-0.7 0-1.3-0.1-2.3 0-1-0.2-2.2h2.9q0 0 0 0.9 0 0.9 0 2.3 0 1.3 0 2.6 0 1.3 0 2 0 2.4 0.5 3.5 0.5 1 1.9 1 0.8 0 1.7-0.6 1-0.6 1.8-1.5 0.7-0.9 1.1-1.8v-3.9q0-1.4 0-2.3-0.1-0.9-0.3-2.2h2.9q0 0 0 0.8 0 0.9 0 2.2 0 1.3 0 2.6 0 1.4 0 2.4 0 2 0.2 3.6 0.3 1.5 0.7 2.7h-2.4q-0.2-0.5-0.4-1.2-0.2-0.8-0.4-1.6-2.5 3.2-5.4 3.2zm15-0.4h-2.6v-8.6q0-2.1-0.2-3.5-0.3-1.5-0.5-2.2h2.5q0.2 0.4 0.3 1.1 0.1 0.6 0.2 1.1 1.3-1.5 2.4-2 1.1-0.5 2.3-0.5 1.4 0 2.3 0.7 0.8 0.7 1.2 1.7 1.3-1.5 2.5-1.9 1.1-0.5 2.2-0.5 2.2 0 3 1.4 0.8 1.3 0.8 3.9v9.3h-2.6v-7.7q0-1.8-0.2-2.8-0.1-0.9-0.6-1.3-0.4-0.3-1.2-0.3-1 0-2 0.8-1 0.7-1.6 2v9.3h-2.6v-8q0-1.7-0.2-2.6-0.1-0.9-0.6-1.2-0.4-0.3-1.2-0.3-1.1 0-2.1 0.8-1 0.8-1.5 2zm41.4 0h-12.1q0.2-0.8 0.2-2.4 0-1.6 0-3.7v-8.2q0-2.1 0-3.7 0-1.6-0.2-2.5h2.9v18.2h3.1q2.1 0 3.7 0 1.6 0 2.4-0.2zm6.7 0.4q-2 0-3.2-1.2-1.3-1.2-1.3-2.8 0-1 0.5-2.1 0.5-1.1 1.7-1.8 1.2-0.8 3.4-1 0.5-0.1 1.3-0.2 0.7 0 1.5-0.1 0.7-0.1 1-0.1v-1q0-1.3-0.9-1.9-0.9-0.5-2.5-0.5-1.1 0-2.2 0.4-1.1 0.5-2.4 1.3 0-0.4 0.1-1.3 0-1 0.1-1.4 1.1-0.5 2.2-0.9 1.2-0.4 2.8-0.4 2.5 0 3.9 1.2 1.5 1.1 1.5 2.7v5.5q0 1.5 0.2 2.8 0.3 1.2 0.8 2.4h-2.5q-0.1-0.3-0.3-0.9-0.3-0.6-0.4-1.3-1.3 1.4-2.6 2-1.4 0.6-2.7 0.6zm0.4-2.3q1.1 0 2.2-0.5 1-0.4 2.3-2.1v-2.4q-0.4 0-1.1 0.1-0.7 0-1.4 0.1-0.7 0.1-1.2 0.1-1.8 0.2-2.5 1-0.7 0.7-0.7 1.7 0 0.9 0.6 1.4 0.7 0.6 1.8 0.6zm17.5 2.3q-1.7 0-3.2-0.5-1.5-0.4-2.8-0.8 0-0.7 0-2.1 0-1.5 0-3.3 0-1.9 0-3.8 0-1.8 0-3.4 0-1.5 0-2.3 0-1.1 0-2.3 0-1.2-0.1-2.4 0-1.2-0.1-1.9h2.8q0 0 0 0.9 0 1 0 2.5 0 1.5 0 3.1 0 1.5 0 2.8 0 1.2 0 1.5 1-1.2 2.3-2.1 1.3-0.9 3.1-0.9 1.4 0 2.5 0.9 1.1 0.9 1.7 2.5 0.6 1.6 0.6 3.6 0 3.7-1.8 5.8-1.9 2.2-5 2.2zm0-2.2q1.9 0 3.1-1.4 1.2-1.5 1.2-3.9 0-2.3-0.8-3.6-0.8-1.4-2.3-1.4-1.4 0-2.6 1.1-1.3 1.1-2 2.8v5.6q1 0.4 1.8 0.6 0.7 0.2 1.6 0.2z"/></svg>